<svg xmlns="http://www.w3.org/2000/svg" xmlns:xlink="http://www.w3.org/1999/xlink" width="500" zoomAndPan="magnify" viewBox="0 0 375 374.999991" height="500" preserveAspectRatio="xMidYMid meet" version="1.0"><defs><filter x="0%" y="0%" width="100%" height="100%" id="id1"><feColorMatrix values="0 0 0 0 1 0 0 0 0 1 0 0 0 0 1 0 0 0 1 0" color-interpolation-filters="sRGB"/></filter><g/><mask id="id2"><g filter="url(#id1)"><rect x="-37.5" width="450" fill="#000000" y="-37.499999" height="449.999989" fill-opacity="0.3176"/></g></mask><clipPath id="id3"><rect x="0" width="375" y="0" height="375"/></clipPath><clipPath id="id4"><path d="M 93 15.375 L 281 15.375 L 281 346 L 93 346 Z M 93 15.375 " clip-rule="nonzero"/></clipPath><clipPath id="id5"><path d="M 122 330 L 137 330 L 137 359.625 L 122 359.625 Z M 122 330 " clip-rule="nonzero"/></clipPath><clipPath id="id6"><path d="M 237 330 L 252 330 L 252 359.625 L 237 359.625 Z M 237 330 " clip-rule="nonzero"/></clipPath></defs><g mask="url(#id2)"><g transform="matrix(1, 0, 0, 1, 0, 0)"><g clip-path="url(#id3)"><path fill="#ffbd59" d="M 187.5 0 C 83.945312 0 0 83.945312 0 187.5 C 0 291.054688 83.945312 375 187.5 375 C 291.054688 375 375 291.054688 375 187.5 C 375 83.945312 291.054688 0 187.5 0 " fill-opacity="1" fill-rule="nonzero"/></g></g></g><g clip-path="url(#id4)"><path fill="#ff914d" d="M 122.578125 15.375 L 251.65625 15.375 C 267.585938 15.375 280.449219 28.296875 280.449219 44.0625 L 280.449219 316.59375 C 280.449219 332.429688 267.585938 345.28125 251.65625 345.28125 L 122.578125 345.28125 C 106.648438 345.28125 93.785156 332.355469 93.785156 316.59375 L 93.785156 44.0625 C 93.785156 28.222656 106.648438 15.375 122.578125 15.375 Z M 108.144531 316.59375 C 108.144531 324.4375 114.648438 330.9375 122.578125 330.9375 L 251.65625 330.9375 C 259.65625 330.9375 266.089844 324.511719 266.089844 316.59375 L 266.089844 44.0625 C 266.089844 36.214844 259.582031 29.71875 251.65625 29.71875 L 122.578125 29.71875 C 114.574219 29.71875 108.144531 36.140625 108.144531 44.0625 Z M 108.144531 316.59375 " fill-opacity="1" fill-rule="nonzero"/></g><g clip-path="url(#id5)"><path fill="#ff914d" d="M 122.5 330.9375 L 136.859375 330.9375 L 136.859375 359.625 L 122.5 359.625 Z M 122.5 330.9375 " fill-opacity="1" fill-rule="evenodd"/></g><g clip-path="url(#id6)"><path fill="#ff914d" d="M 237.371094 330.9375 L 251.730469 330.9375 L 251.730469 359.625 L 237.371094 359.625 Z M 237.371094 330.9375 " fill-opacity="1" fill-rule="evenodd"/></g><path fill="#ff914d" d="M 93.785156 130.125 L 280.449219 130.125 L 280.449219 144.46875 L 93.785156 144.46875 Z M 93.785156 130.125 " fill-opacity="1" fill-rule="evenodd"/><path fill="#ff914d" d="M 122.5 72.75 L 136.859375 72.75 L 136.859375 115.78125 L 122.5 115.78125 Z M 122.5 72.75 " fill-opacity="1" fill-rule="evenodd"/><path fill="#ff914d" d="M 122.5 158.8125 L 136.859375 158.8125 L 136.859375 201.84375 L 122.5 201.84375 Z M 122.5 158.8125 " fill-opacity="1" fill-rule="evenodd"/><g fill="#dd6e2a" fill-opacity="0.302"><g transform="translate(18.365397, 220.867628)"><g><path d="M 86.492188 -112.765625 L 37.171875 -104.179688 C 30.796875 -103.070312 28.777344 -98.800781 29.398438 -95.222656 C 29.984375 -91.867188 33.007812 -89.054688 37.035156 -89.753906 L 43.746094 -90.921875 L 40.058594 -71.730469 L 34.914062 -70.832031 C 28.875 -69.78125 26.609375 -65.585938 27.230469 -62.007812 C 27.835938 -58.539062 31.101562 -55.652344 36.46875 -56.585938 L 37.589844 -56.78125 L 33.714844 -34.675781 C 31.746094 -23.5 27.621094 -20.707031 21.804688 -19.695312 C 17.78125 -18.996094 14.515625 -21.191406 13.042969 -23.703125 C 13.128906 -24.523438 13.105469 -25.328125 12.96875 -26.109375 C 12.074219 -31.253906 6.945312 -33.585938 2.582031 -32.828125 C -1.890625 -32.050781 -5.820312 -28.140625 -4.574219 -20.980469 C -2.722656 -10.355469 9.730469 -1.695312 24.378906 -4.242188 C 35.898438 -6.25 46.28125 -13.472656 49.539062 -32.476562 C 50.859375 -40.769531 52.800781 -51.476562 54.234375 -59.792969 L 60.941406 -60.960938 C 67.765625 -62.148438 69.769531 -66.53125 69.125 -70.222656 C 68.5625 -73.464844 65.890625 -76.226562 62.535156 -75.640625 L 56.71875 -74.628906 L 59.847656 -93.726562 L 86.128906 -98.300781 C 92.355469 -99.613281 94.414062 -103.660156 93.792969 -107.238281 C 93.207031 -110.59375 90.296875 -113.429688 86.492188 -112.765625 Z M 86.492188 -112.765625 "/></g></g></g><g fill="#dd6e2a" fill-opacity="0.302"><g transform="translate(92.847423, 207.90281)"><g><path d="M 51.054688 -42.300781 C 48.714844 -30.601562 44.429688 -21.445312 39.734375 -20.628906 C 38.167969 -20.355469 37.132812 -21.671875 36.859375 -23.238281 C 36.742188 -23.910156 36.699219 -24.824219 36.878906 -25.777344 L 40.285156 -45.265625 C 40.566406 -47.621094 40.664062 -49.710938 40.332031 -51.613281 C 38.484375 -62.238281 24.285156 -64.375 17.691406 -65.183594 C 17.871094 -66.136719 17.804688 -67.164062 17.652344 -68.058594 C 16.753906 -73.203125 11.410156 -76.765625 6.378906 -75.890625 C -0.21875 -74.742188 -3.121094 -68.246094 -2.011719 -61.871094 C -1.527344 -59.074219 -0.0117188 -56.34375 2.164062 -54.417969 L -2.164062 -30.964844 C -2.230469 -30.03125 -2.1875 -29.117188 -2.070312 -28.445312 C -1.429688 -24.753906 1.808594 -23.359375 4.941406 -23.90625 C 8.074219 -24.449219 11.003906 -26.804688 11.722656 -30.617188 L 15.066406 -48.480469 C 18.375 -48.019531 22.648438 -47.957031 23.308594 -44.15625 C 23.40625 -43.597656 23.410156 -42.90625 23.324219 -42.085938 L 20.777344 -27.582031 C 20.332031 -24.855469 20.292969 -22.429688 20.683594 -20.191406 C 22.375 -10.460938 31.203125 -5.429688 40.484375 -7.046875 C 52.675781 -9.167969 61.859375 -21.945312 65.167969 -41.992188 C 65.273438 -42.703125 65.289062 -43.28125 65.191406 -43.839844 C 64.605469 -47.195312 60.527344 -48.789062 56.949219 -48.167969 C 54.039062 -47.660156 51.476562 -45.832031 51.054688 -42.300781 Z M 51.054688 -42.300781 "/></g></g></g><g fill="#dd6e2a" fill-opacity="0.302"><g transform="translate(145.74532, 198.695064)"><g><path d="M 16.867188 -81.171875 C 21.898438 -82.050781 25.316406 -86.90625 24.421875 -92.050781 C 23.542969 -97.085938 18.707031 -100.390625 13.671875 -99.515625 C 8.640625 -98.636719 5.203125 -93.890625 6.078125 -88.859375 C 6.976562 -83.714844 11.832031 -80.296875 16.867188 -81.171875 Z M 11.695312 -21.507812 L 17.886719 -58.765625 C 18.078125 -60.296875 18.367188 -61.960938 18.171875 -63.078125 C 17.316406 -68 13.175781 -69.929688 9.375 -69.269531 C 5.90625 -68.664062 2.644531 -65.5625 1.769531 -59.996094 C 0.0234375 -48.859375 -2.359375 -34.734375 -4.128906 -23.710938 C -4.410156 -21.355469 -4.777344 -18.179688 -4.445312 -16.277344 C -2.617188 -5.765625 7.15625 -1.246094 17.445312 -3.035156 C 28.40625 -4.945312 39.316406 -13.757812 43.117188 -38.269531 C 43.222656 -38.980469 43.21875 -39.671875 43.101562 -40.339844 C 42.496094 -43.808594 38.773438 -45.347656 35.417969 -44.765625 C 32.398438 -44.238281 29.652344 -42.148438 28.910156 -38.449219 C 26.1875 -22.992188 21.058594 -17.378906 16.582031 -16.597656 C 14.011719 -16.152344 12.042969 -17.535156 11.671875 -19.660156 C 11.574219 -20.21875 11.589844 -20.800781 11.695312 -21.507812 Z M 11.695312 -21.507812 "/></g></g></g><g fill="#dd6e2a" fill-opacity="0.302"><g transform="translate(176.61175, 193.322255)"><g><path d="M 64.585938 -49.957031 C 61.566406 -49.433594 58.707031 -47.320312 58.324219 -43.566406 C 55.628906 -29.269531 50.582031 -22.515625 45.550781 -21.640625 C 43.3125 -21.25 41.808594 -22.601562 41.5 -24.390625 C 41.382812 -25.0625 41.375 -25.753906 41.589844 -27.171875 L 52.9375 -97.015625 C 53.152344 -98.4375 53.382812 -100.433594 53.167969 -101.664062 C 52.328125 -106.472656 47.96875 -108.363281 44.054688 -107.683594 C 40.585938 -107.078125 37.792969 -103.941406 36.789062 -97.777344 L 31.636719 -67.152344 C 27.636719 -70.257812 22.347656 -71.527344 17.089844 -70.613281 C 9.820312 -69.347656 2.695312 -63.957031 1.152344 -54.933594 L -4.214844 -22.886719 C -4.628906 -20.625 -4.574219 -18.332031 -4.222656 -16.316406 C -2.511719 -6.476562 6.597656 -1.148438 16.214844 -2.824219 C 21.472656 -3.738281 26.976562 -6.539062 30.691406 -11.679688 C 34.820312 -8.480469 40.597656 -7.066406 46.1875 -8.039062 C 57.261719 -9.96875 68.628906 -20.125 72.304688 -43.351562 C 72.390625 -44.171875 72.480469 -44.996094 72.363281 -45.664062 C 71.757812 -49.132812 68.054688 -50.5625 64.585938 -49.957031 Z M 15.679688 -20.472656 C 13.457031 -20.664062 12.605469 -22.242188 12.292969 -24.03125 C 12.039062 -25.488281 12.144531 -26.886719 12.304688 -27.953125 L 15.425781 -47.738281 C 16.515625 -54.726562 19.339844 -56.371094 21.128906 -56.679688 C 23.253906 -57.050781 25.972656 -55.335938 26.632812 -51.53125 C 26.925781 -49.855469 26.960938 -47.671875 26.441406 -44.699219 L 24.09375 -31.042969 C 22.179688 -22.179688 17.882812 -20.394531 15.679688 -20.472656 Z M 15.679688 -20.472656 "/></g></g></g><g fill="#dd6e2a" fill-opacity="0.302"><g transform="translate(236.667069, 182.868642)"><g><path d="M 41.140625 -17.1875 L 49.039062 -63.152344 C 49.414062 -65.636719 49.417969 -67.597656 49.164062 -69.050781 C 48.289062 -74.082031 44.648438 -74.488281 43.09375 -74.792969 C 42.386719 -74.898438 41.582031 -74.875 40.800781 -74.738281 C 37.445312 -74.15625 34.269531 -71.875 33.609375 -67.726562 C 29.105469 -71.089844 24.585938 -71.917969 18.65625 -70.882812 C 10.382812 -69.445312 2.476562 -63.226562 0.59375 -52.183594 L -4.199219 -23.464844 C -4.574219 -20.980469 -4.59375 -18.441406 -4.203125 -16.207031 C -2.664062 -7.371094 4.515625 -2.515625 12.414062 -2.160156 C 2.363281 1.664062 -10.246094 8.003906 -11.671875 19.660156 C -11.898438 21.660156 -11.832031 23.375 -11.539062 25.054688 C -9.652344 35.902344 1.660156 41.308594 12.621094 39.398438 C 23.691406 37.472656 33.058594 29.734375 35.386719 15.964844 L 38.058594 0.863281 C 53.175781 -6.953125 68.097656 -18.535156 71.726562 -43.367188 C 71.90625 -44.320312 71.863281 -45.234375 71.726562 -46.015625 C 71.0625 -49.816406 67.765625 -51.546875 64.410156 -50.964844 C 61.390625 -50.4375 58.480469 -47.972656 57.671875 -43.339844 C 55.519531 -31.210938 49.195312 -23.195312 41.140625 -17.1875 Z M 30.316406 -50.90625 L 25.921875 -25.828125 C 24.425781 -21.191406 21.167969 -17.398438 17.367188 -16.734375 C 14.683594 -16.265625 12.4375 -17.257812 12.007812 -19.71875 C 11.910156 -20.277344 11.976562 -21.210938 12.066406 -22.035156 L 17.1875 -52.191406 C 17.757812 -55.519531 20.058594 -57.53125 22.519531 -57.960938 C 25.988281 -58.5625 29.453125 -56.515625 30.15625 -52.492188 C 30.234375 -52.042969 30.328125 -51.484375 30.316406 -50.90625 Z M 18.488281 9.570312 L 17.128906 17.644531 C 16.28125 22.054688 13.1875 24.78125 9.832031 25.367188 C 7.257812 25.8125 5.757812 24.460938 5.40625 22.449219 C 5.289062 21.777344 5.355469 20.84375 5.554688 20.003906 C 6.441406 15.816406 11.550781 12.738281 18.488281 9.570312 Z M 18.488281 9.570312 "/></g></g></g><g fill="#dd6e2a" fill-opacity="0.302"><g transform="translate(296.386892, 172.473428)"><g><path d="M 51.097656 -41.386719 C 48.4375 -27.558594 37.609375 -20.257812 28.101562 -18.605469 C 19.9375 -17.183594 14.113281 -20.203125 13.21875 -25.34375 C 13.042969 -26.351562 12.980469 -27.378906 13.230469 -28.574219 L 13.757812 -30.855469 C 17.351562 -29.40625 21.609375 -28.765625 26.082031 -29.542969 C 36.261719 -31.316406 44.097656 -39.246094 45.363281 -49.839844 C 45.554688 -52.0625 45.519531 -54.242188 45.1875 -56.144531 C 43.339844 -66.769531 33.53125 -73.472656 20.894531 -71.273438 C 10.941406 -69.542969 2.222656 -62.03125 0.253906 -50.167969 L -3.015625 -29.894531 C -3.441406 -27.054688 -3.535156 -24.273438 -3.085938 -21.703125 C -0.769531 -8.394531 13.195312 -2.296875 29.523438 -5.140625 C 45.070312 -7.84375 61.417969 -18.527344 65.078125 -41.171875 C 65.257812 -42.125 65.234375 -42.925781 65.117188 -43.597656 C 64.515625 -47.066406 61.050781 -48.421875 57.695312 -47.835938 C 54.566406 -47.292969 51.503906 -45.03125 51.097656 -41.386719 Z M 22.855469 -58.019531 C 25.988281 -58.5625 28.449219 -56.34375 29.011719 -53.097656 C 29.167969 -52.203125 29.210938 -51.289062 29.03125 -50.335938 C 28.554688 -46.453125 25.433594 -44.527344 22.078125 -43.941406 C 19.953125 -43.570312 17.75 -43.648438 16.03125 -44.269531 L 17.210938 -51.390625 C 17.835938 -55.070312 20.28125 -57.570312 22.855469 -58.019531 Z M 22.855469 -58.019531 "/></g></g></g><g fill="#dd6e2a" fill-opacity="0.502"><g transform="translate(13.061216, 214.950683)"><g><path d="M 86.492188 -112.765625 L 37.171875 -104.179688 C 30.796875 -103.070312 28.777344 -98.800781 29.398438 -95.222656 C 29.984375 -91.867188 33.007812 -89.054688 37.035156 -89.753906 L 43.746094 -90.921875 L 40.058594 -71.730469 L 34.914062 -70.832031 C 28.875 -69.78125 26.609375 -65.585938 27.230469 -62.007812 C 27.835938 -58.539062 31.101562 -55.652344 36.46875 -56.585938 L 37.589844 -56.78125 L 33.714844 -34.675781 C 31.746094 -23.5 27.621094 -20.707031 21.804688 -19.695312 C 17.78125 -18.996094 14.515625 -21.191406 13.042969 -23.703125 C 13.128906 -24.523438 13.105469 -25.328125 12.96875 -26.109375 C 12.074219 -31.253906 6.945312 -33.585938 2.582031 -32.828125 C -1.890625 -32.050781 -5.820312 -28.140625 -4.574219 -20.980469 C -2.722656 -10.355469 9.730469 -1.695312 24.378906 -4.242188 C 35.898438 -6.25 46.28125 -13.472656 49.539062 -32.476562 C 50.859375 -40.769531 52.800781 -51.476562 54.234375 -59.792969 L 60.941406 -60.960938 C 67.765625 -62.148438 69.769531 -66.53125 69.125 -70.222656 C 68.5625 -73.464844 65.890625 -76.226562 62.535156 -75.640625 L 56.71875 -74.628906 L 59.847656 -93.726562 L 86.128906 -98.300781 C 92.355469 -99.613281 94.414062 -103.660156 93.792969 -107.238281 C 93.207031 -110.59375 90.296875 -113.429688 86.492188 -112.765625 Z M 86.492188 -112.765625 "/></g></g></g><g fill="#dd6e2a" fill-opacity="0.502"><g transform="translate(87.543241, 201.985865)"><g><path d="M 51.054688 -42.300781 C 48.714844 -30.601562 44.429688 -21.445312 39.734375 -20.628906 C 38.167969 -20.355469 37.132812 -21.671875 36.859375 -23.238281 C 36.742188 -23.910156 36.699219 -24.824219 36.878906 -25.777344 L 40.285156 -45.265625 C 40.566406 -47.621094 40.664062 -49.710938 40.332031 -51.613281 C 38.484375 -62.238281 24.285156 -64.375 17.691406 -65.183594 C 17.871094 -66.136719 17.804688 -67.164062 17.652344 -68.058594 C 16.753906 -73.203125 11.410156 -76.765625 6.378906 -75.890625 C -0.21875 -74.742188 -3.121094 -68.246094 -2.011719 -61.871094 C -1.527344 -59.074219 -0.0117188 -56.34375 2.164062 -54.417969 L -2.164062 -30.964844 C -2.230469 -30.03125 -2.1875 -29.117188 -2.070312 -28.445312 C -1.429688 -24.753906 1.808594 -23.359375 4.941406 -23.90625 C 8.074219 -24.449219 11.003906 -26.804688 11.722656 -30.617188 L 15.066406 -48.480469 C 18.375 -48.019531 22.648438 -47.957031 23.308594 -44.15625 C 23.40625 -43.597656 23.410156 -42.90625 23.324219 -42.085938 L 20.777344 -27.582031 C 20.332031 -24.855469 20.292969 -22.429688 20.683594 -20.191406 C 22.375 -10.460938 31.203125 -5.429688 40.484375 -7.046875 C 52.675781 -9.167969 61.859375 -21.945312 65.167969 -41.992188 C 65.273438 -42.703125 65.289062 -43.28125 65.191406 -43.839844 C 64.605469 -47.195312 60.527344 -48.789062 56.949219 -48.167969 C 54.039062 -47.660156 51.476562 -45.832031 51.054688 -42.300781 Z M 51.054688 -42.300781 "/></g></g></g><g fill="#dd6e2a" fill-opacity="0.502"><g transform="translate(140.441138, 192.778118)"><g><path d="M 16.867188 -81.171875 C 21.898438 -82.050781 25.316406 -86.90625 24.421875 -92.050781 C 23.542969 -97.085938 18.707031 -100.390625 13.671875 -99.515625 C 8.640625 -98.636719 5.203125 -93.890625 6.078125 -88.859375 C 6.976562 -83.714844 11.832031 -80.296875 16.867188 -81.171875 Z M 11.695312 -21.507812 L 17.886719 -58.765625 C 18.078125 -60.296875 18.367188 -61.960938 18.171875 -63.078125 C 17.316406 -68 13.175781 -69.929688 9.375 -69.269531 C 5.90625 -68.664062 2.644531 -65.5625 1.769531 -59.996094 C 0.0234375 -48.859375 -2.359375 -34.734375 -4.128906 -23.710938 C -4.410156 -21.355469 -4.777344 -18.179688 -4.445312 -16.277344 C -2.617188 -5.765625 7.15625 -1.246094 17.445312 -3.035156 C 28.40625 -4.945312 39.316406 -13.757812 43.117188 -38.269531 C 43.222656 -38.980469 43.21875 -39.671875 43.101562 -40.339844 C 42.496094 -43.808594 38.773438 -45.347656 35.417969 -44.765625 C 32.398438 -44.238281 29.652344 -42.148438 28.910156 -38.449219 C 26.1875 -22.992188 21.058594 -17.378906 16.582031 -16.597656 C 14.011719 -16.152344 12.042969 -17.535156 11.671875 -19.660156 C 11.574219 -20.21875 11.589844 -20.800781 11.695312 -21.507812 Z M 11.695312 -21.507812 "/></g></g></g><g fill="#dd6e2a" fill-opacity="0.502"><g transform="translate(171.307569, 187.40531)"><g><path d="M 64.585938 -49.957031 C 61.566406 -49.433594 58.707031 -47.320312 58.324219 -43.566406 C 55.628906 -29.269531 50.582031 -22.515625 45.550781 -21.640625 C 43.3125 -21.25 41.808594 -22.601562 41.5 -24.390625 C 41.382812 -25.0625 41.375 -25.753906 41.589844 -27.171875 L 52.9375 -97.015625 C 53.152344 -98.4375 53.382812 -100.433594 53.167969 -101.664062 C 52.328125 -106.472656 47.96875 -108.363281 44.054688 -107.683594 C 40.585938 -107.078125 37.792969 -103.941406 36.789062 -97.777344 L 31.636719 -67.152344 C 27.636719 -70.257812 22.347656 -71.527344 17.089844 -70.613281 C 9.820312 -69.347656 2.695312 -63.957031 1.152344 -54.933594 L -4.214844 -22.886719 C -4.628906 -20.625 -4.574219 -18.332031 -4.222656 -16.316406 C -2.511719 -6.476562 6.597656 -1.148438 16.214844 -2.824219 C 21.472656 -3.738281 26.976562 -6.539062 30.691406 -11.679688 C 34.820312 -8.480469 40.597656 -7.066406 46.1875 -8.039062 C 57.261719 -9.96875 68.628906 -20.125 72.304688 -43.351562 C 72.390625 -44.171875 72.480469 -44.996094 72.363281 -45.664062 C 71.757812 -49.132812 68.054688 -50.5625 64.585938 -49.957031 Z M 15.679688 -20.472656 C 13.457031 -20.664062 12.605469 -22.242188 12.292969 -24.03125 C 12.039062 -25.488281 12.144531 -26.886719 12.304688 -27.953125 L 15.425781 -47.738281 C 16.515625 -54.726562 19.339844 -56.371094 21.128906 -56.679688 C 23.253906 -57.050781 25.972656 -55.335938 26.632812 -51.53125 C 26.925781 -49.855469 26.960938 -47.671875 26.441406 -44.699219 L 24.09375 -31.042969 C 22.179688 -22.179688 17.882812 -20.394531 15.679688 -20.472656 Z M 15.679688 -20.472656 "/></g></g></g><g fill="#dd6e2a" fill-opacity="0.502"><g transform="translate(231.362887, 176.951697)"><g><path d="M 41.140625 -17.1875 L 49.039062 -63.152344 C 49.414062 -65.636719 49.417969 -67.597656 49.164062 -69.050781 C 48.289062 -74.082031 44.648438 -74.488281 43.09375 -74.792969 C 42.386719 -74.898438 41.582031 -74.875 40.800781 -74.738281 C 37.445312 -74.15625 34.269531 -71.875 33.609375 -67.726562 C 29.105469 -71.089844 24.585938 -71.917969 18.65625 -70.882812 C 10.382812 -69.445312 2.476562 -63.226562 0.59375 -52.183594 L -4.199219 -23.464844 C -4.574219 -20.980469 -4.59375 -18.441406 -4.203125 -16.207031 C -2.664062 -7.371094 4.515625 -2.515625 12.414062 -2.160156 C 2.363281 1.664062 -10.246094 8.003906 -11.671875 19.660156 C -11.898438 21.660156 -11.832031 23.375 -11.539062 25.054688 C -9.652344 35.902344 1.660156 41.308594 12.621094 39.398438 C 23.691406 37.472656 33.058594 29.734375 35.386719 15.964844 L 38.058594 0.863281 C 53.175781 -6.953125 68.097656 -18.535156 71.726562 -43.367188 C 71.90625 -44.320312 71.863281 -45.234375 71.726562 -46.015625 C 71.0625 -49.816406 67.765625 -51.546875 64.410156 -50.964844 C 61.390625 -50.4375 58.480469 -47.972656 57.671875 -43.339844 C 55.519531 -31.210938 49.195312 -23.195312 41.140625 -17.1875 Z M 30.316406 -50.90625 L 25.921875 -25.828125 C 24.425781 -21.191406 21.167969 -17.398438 17.367188 -16.734375 C 14.683594 -16.265625 12.4375 -17.257812 12.007812 -19.71875 C 11.910156 -20.277344 11.976562 -21.210938 12.066406 -22.035156 L 17.1875 -52.191406 C 17.757812 -55.519531 20.058594 -57.53125 22.519531 -57.960938 C 25.988281 -58.5625 29.453125 -56.515625 30.15625 -52.492188 C 30.234375 -52.042969 30.328125 -51.484375 30.316406 -50.90625 Z M 18.488281 9.570312 L 17.128906 17.644531 C 16.28125 22.054688 13.1875 24.78125 9.832031 25.367188 C 7.257812 25.8125 5.757812 24.460938 5.40625 22.449219 C 5.289062 21.777344 5.355469 20.84375 5.554688 20.003906 C 6.441406 15.816406 11.550781 12.738281 18.488281 9.570312 Z M 18.488281 9.570312 "/></g></g></g><g fill="#dd6e2a" fill-opacity="0.502"><g transform="translate(291.08271, 166.556482)"><g><path d="M 51.097656 -41.386719 C 48.4375 -27.558594 37.609375 -20.257812 28.101562 -18.605469 C 19.9375 -17.183594 14.113281 -20.203125 13.21875 -25.34375 C 13.042969 -26.351562 12.980469 -27.378906 13.230469 -28.574219 L 13.757812 -30.855469 C 17.351562 -29.40625 21.609375 -28.765625 26.082031 -29.542969 C 36.261719 -31.316406 44.097656 -39.246094 45.363281 -49.839844 C 45.554688 -52.0625 45.519531 -54.242188 45.1875 -56.144531 C 43.339844 -66.769531 33.53125 -73.472656 20.894531 -71.273438 C 10.941406 -69.542969 2.222656 -62.03125 0.253906 -50.167969 L -3.015625 -29.894531 C -3.441406 -27.054688 -3.535156 -24.273438 -3.085938 -21.703125 C -0.769531 -8.394531 13.195312 -2.296875 29.523438 -5.140625 C 45.070312 -7.84375 61.417969 -18.527344 65.078125 -41.171875 C 65.257812 -42.125 65.234375 -42.925781 65.117188 -43.597656 C 64.515625 -47.066406 61.050781 -48.421875 57.695312 -47.835938 C 54.566406 -47.292969 51.503906 -45.03125 51.097656 -41.386719 Z M 22.855469 -58.019531 C 25.988281 -58.5625 28.449219 -56.34375 29.011719 -53.097656 C 29.167969 -52.203125 29.210938 -51.289062 29.03125 -50.335938 C 28.554688 -46.453125 25.433594 -44.527344 22.078125 -43.941406 C 19.953125 -43.570312 17.75 -43.648438 16.03125 -44.269531 L 17.210938 -51.390625 C 17.835938 -55.070312 20.28125 -57.570312 22.855469 -58.019531 Z M 22.855469 -58.019531 "/></g></g></g><g fill="#ffffff" fill-opacity="1"><g transform="translate(7.757034, 209.033747)"><g><path d="M 86.492188 -112.765625 L 37.171875 -104.179688 C 30.796875 -103.070312 28.777344 -98.800781 29.398438 -95.222656 C 29.984375 -91.867188 33.007812 -89.054688 37.035156 -89.753906 L 43.746094 -90.921875 L 40.058594 -71.730469 L 34.914062 -70.832031 C 28.875 -69.78125 26.609375 -65.585938 27.230469 -62.007812 C 27.835938 -58.539062 31.101562 -55.652344 36.46875 -56.585938 L 37.589844 -56.78125 L 33.714844 -34.675781 C 31.746094 -23.5 27.621094 -20.707031 21.804688 -19.695312 C 17.78125 -18.996094 14.515625 -21.191406 13.042969 -23.703125 C 13.128906 -24.523438 13.105469 -25.328125 12.96875 -26.109375 C 12.074219 -31.253906 6.945312 -33.585938 2.582031 -32.828125 C -1.890625 -32.050781 -5.820312 -28.140625 -4.574219 -20.980469 C -2.722656 -10.355469 9.730469 -1.695312 24.378906 -4.242188 C 35.898438 -6.25 46.28125 -13.472656 49.539062 -32.476562 C 50.859375 -40.769531 52.800781 -51.476562 54.234375 -59.792969 L 60.941406 -60.960938 C 67.765625 -62.148438 69.769531 -66.53125 69.125 -70.222656 C 68.5625 -73.464844 65.890625 -76.226562 62.535156 -75.640625 L 56.71875 -74.628906 L 59.847656 -93.726562 L 86.128906 -98.300781 C 92.355469 -99.613281 94.414062 -103.660156 93.792969 -107.238281 C 93.207031 -110.59375 90.296875 -113.429688 86.492188 -112.765625 Z M 86.492188 -112.765625 "/></g></g></g><g fill="#ffffff" fill-opacity="1"><g transform="translate(82.239059, 196.068929)"><g><path d="M 51.054688 -42.300781 C 48.714844 -30.601562 44.429688 -21.445312 39.734375 -20.628906 C 38.167969 -20.355469 37.132812 -21.671875 36.859375 -23.238281 C 36.742188 -23.910156 36.699219 -24.824219 36.878906 -25.777344 L 40.285156 -45.265625 C 40.566406 -47.621094 40.664062 -49.710938 40.332031 -51.613281 C 38.484375 -62.238281 24.285156 -64.375 17.691406 -65.183594 C 17.871094 -66.136719 17.804688 -67.164062 17.652344 -68.058594 C 16.753906 -73.203125 11.410156 -76.765625 6.378906 -75.890625 C -0.21875 -74.742188 -3.121094 -68.246094 -2.011719 -61.871094 C -1.527344 -59.074219 -0.0117188 -56.34375 2.164062 -54.417969 L -2.164062 -30.964844 C -2.230469 -30.03125 -2.1875 -29.117188 -2.070312 -28.445312 C -1.429688 -24.753906 1.808594 -23.359375 4.941406 -23.90625 C 8.074219 -24.449219 11.003906 -26.804688 11.722656 -30.617188 L 15.066406 -48.480469 C 18.375 -48.019531 22.648438 -47.957031 23.308594 -44.15625 C 23.40625 -43.597656 23.410156 -42.90625 23.324219 -42.085938 L 20.777344 -27.582031 C 20.332031 -24.855469 20.292969 -22.429688 20.683594 -20.191406 C 22.375 -10.460938 31.203125 -5.429688 40.484375 -7.046875 C 52.675781 -9.167969 61.859375 -21.945312 65.167969 -41.992188 C 65.273438 -42.703125 65.289062 -43.28125 65.191406 -43.839844 C 64.605469 -47.195312 60.527344 -48.789062 56.949219 -48.167969 C 54.039062 -47.660156 51.476562 -45.832031 51.054688 -42.300781 Z M 51.054688 -42.300781 "/></g></g></g><g fill="#ffffff" fill-opacity="1"><g transform="translate(135.136956, 186.861183)"><g><path d="M 16.867188 -81.171875 C 21.898438 -82.050781 25.316406 -86.90625 24.421875 -92.050781 C 23.542969 -97.085938 18.707031 -100.390625 13.671875 -99.515625 C 8.640625 -98.636719 5.203125 -93.890625 6.078125 -88.859375 C 6.976562 -83.714844 11.832031 -80.296875 16.867188 -81.171875 Z M 11.695312 -21.507812 L 17.886719 -58.765625 C 18.078125 -60.296875 18.367188 -61.960938 18.171875 -63.078125 C 17.316406 -68 13.175781 -69.929688 9.375 -69.269531 C 5.90625 -68.664062 2.644531 -65.5625 1.769531 -59.996094 C 0.0234375 -48.859375 -2.359375 -34.734375 -4.128906 -23.710938 C -4.410156 -21.355469 -4.777344 -18.179688 -4.445312 -16.277344 C -2.617188 -5.765625 7.15625 -1.246094 17.445312 -3.035156 C 28.40625 -4.945312 39.316406 -13.757812 43.117188 -38.269531 C 43.222656 -38.980469 43.21875 -39.671875 43.101562 -40.339844 C 42.496094 -43.808594 38.773438 -45.347656 35.417969 -44.765625 C 32.398438 -44.238281 29.652344 -42.148438 28.910156 -38.449219 C 26.1875 -22.992188 21.058594 -17.378906 16.582031 -16.597656 C 14.011719 -16.152344 12.042969 -17.535156 11.671875 -19.660156 C 11.574219 -20.21875 11.589844 -20.800781 11.695312 -21.507812 Z M 11.695312 -21.507812 "/></g></g></g><g fill="#ffffff" fill-opacity="1"><g transform="translate(166.003387, 181.488374)"><g><path d="M 64.585938 -49.957031 C 61.566406 -49.433594 58.707031 -47.320312 58.324219 -43.566406 C 55.628906 -29.269531 50.582031 -22.515625 45.550781 -21.640625 C 43.3125 -21.25 41.808594 -22.601562 41.5 -24.390625 C 41.382812 -25.0625 41.375 -25.753906 41.589844 -27.171875 L 52.9375 -97.015625 C 53.152344 -98.4375 53.382812 -100.433594 53.167969 -101.664062 C 52.328125 -106.472656 47.96875 -108.363281 44.054688 -107.683594 C 40.585938 -107.078125 37.792969 -103.941406 36.789062 -97.777344 L 31.636719 -67.152344 C 27.636719 -70.257812 22.347656 -71.527344 17.089844 -70.613281 C 9.820312 -69.347656 2.695312 -63.957031 1.152344 -54.933594 L -4.214844 -22.886719 C -4.628906 -20.625 -4.574219 -18.332031 -4.222656 -16.316406 C -2.511719 -6.476562 6.597656 -1.148438 16.214844 -2.824219 C 21.472656 -3.738281 26.976562 -6.539062 30.691406 -11.679688 C 34.820312 -8.480469 40.597656 -7.066406 46.1875 -8.039062 C 57.261719 -9.96875 68.628906 -20.125 72.304688 -43.351562 C 72.390625 -44.171875 72.480469 -44.996094 72.363281 -45.664062 C 71.757812 -49.132812 68.054688 -50.5625 64.585938 -49.957031 Z M 15.679688 -20.472656 C 13.457031 -20.664062 12.605469 -22.242188 12.292969 -24.03125 C 12.039062 -25.488281 12.144531 -26.886719 12.304688 -27.953125 L 15.425781 -47.738281 C 16.515625 -54.726562 19.339844 -56.371094 21.128906 -56.679688 C 23.253906 -57.050781 25.972656 -55.335938 26.632812 -51.53125 C 26.925781 -49.855469 26.960938 -47.671875 26.441406 -44.699219 L 24.09375 -31.042969 C 22.179688 -22.179688 17.882812 -20.394531 15.679688 -20.472656 Z M 15.679688 -20.472656 "/></g></g></g><g fill="#ffffff" fill-opacity="1"><g transform="translate(226.058705, 171.034761)"><g><path d="M 41.140625 -17.1875 L 49.039062 -63.152344 C 49.414062 -65.636719 49.417969 -67.597656 49.164062 -69.050781 C 48.289062 -74.082031 44.648438 -74.488281 43.09375 -74.792969 C 42.386719 -74.898438 41.582031 -74.875 40.800781 -74.738281 C 37.445312 -74.15625 34.269531 -71.875 33.609375 -67.726562 C 29.105469 -71.089844 24.585938 -71.917969 18.65625 -70.882812 C 10.382812 -69.445312 2.476562 -63.226562 0.59375 -52.183594 L -4.199219 -23.464844 C -4.574219 -20.980469 -4.59375 -18.441406 -4.203125 -16.207031 C -2.664062 -7.371094 4.515625 -2.515625 12.414062 -2.160156 C 2.363281 1.664062 -10.246094 8.003906 -11.671875 19.660156 C -11.898438 21.660156 -11.832031 23.375 -11.539062 25.054688 C -9.652344 35.902344 1.660156 41.308594 12.621094 39.398438 C 23.691406 37.472656 33.058594 29.734375 35.386719 15.964844 L 38.058594 0.863281 C 53.175781 -6.953125 68.097656 -18.535156 71.726562 -43.367188 C 71.90625 -44.320312 71.863281 -45.234375 71.726562 -46.015625 C 71.0625 -49.816406 67.765625 -51.546875 64.410156 -50.964844 C 61.390625 -50.4375 58.480469 -47.972656 57.671875 -43.339844 C 55.519531 -31.210938 49.195312 -23.195312 41.140625 -17.1875 Z M 30.316406 -50.90625 L 25.921875 -25.828125 C 24.425781 -21.191406 21.167969 -17.398438 17.367188 -16.734375 C 14.683594 -16.265625 12.4375 -17.257812 12.007812 -19.71875 C 11.910156 -20.277344 11.976562 -21.210938 12.066406 -22.035156 L 17.1875 -52.191406 C 17.757812 -55.519531 20.058594 -57.53125 22.519531 -57.960938 C 25.988281 -58.5625 29.453125 -56.515625 30.15625 -52.492188 C 30.234375 -52.042969 30.328125 -51.484375 30.316406 -50.90625 Z M 18.488281 9.570312 L 17.128906 17.644531 C 16.28125 22.054688 13.1875 24.78125 9.832031 25.367188 C 7.257812 25.8125 5.757812 24.460938 5.40625 22.449219 C 5.289062 21.777344 5.355469 20.84375 5.554688 20.003906 C 6.441406 15.816406 11.550781 12.738281 18.488281 9.570312 Z M 18.488281 9.570312 "/></g></g></g><g fill="#ffffff" fill-opacity="1"><g transform="translate(285.778528, 160.639547)"><g><path d="M 51.097656 -41.386719 C 48.4375 -27.558594 37.609375 -20.257812 28.101562 -18.605469 C 19.9375 -17.183594 14.113281 -20.203125 13.21875 -25.34375 C 13.042969 -26.351562 12.980469 -27.378906 13.230469 -28.574219 L 13.757812 -30.855469 C 17.351562 -29.40625 21.609375 -28.765625 26.082031 -29.542969 C 36.261719 -31.316406 44.097656 -39.246094 45.363281 -49.839844 C 45.554688 -52.0625 45.519531 -54.242188 45.1875 -56.144531 C 43.339844 -66.769531 33.53125 -73.472656 20.894531 -71.273438 C 10.941406 -69.542969 2.222656 -62.03125 0.253906 -50.167969 L -3.015625 -29.894531 C -3.441406 -27.054688 -3.535156 -24.273438 -3.085938 -21.703125 C -0.769531 -8.394531 13.195312 -2.296875 29.523438 -5.140625 C 45.070312 -7.84375 61.417969 -18.527344 65.078125 -41.171875 C 65.257812 -42.125 65.234375 -42.925781 65.117188 -43.597656 C 64.515625 -47.066406 61.050781 -48.421875 57.695312 -47.835938 C 54.566406 -47.292969 51.503906 -45.03125 51.097656 -41.386719 Z M 22.855469 -58.019531 C 25.988281 -58.5625 28.449219 -56.34375 29.011719 -53.097656 C 29.167969 -52.203125 29.210938 -51.289062 29.03125 -50.335938 C 28.554688 -46.453125 25.433594 -44.527344 22.078125 -43.941406 C 19.953125 -43.570312 17.75 -43.648438 16.03125 -44.269531 L 17.210938 -51.390625 C 17.835938 -55.070312 20.28125 -57.570312 22.855469 -58.019531 Z M 22.855469 -58.019531 "/></g></g></g><g fill="#dd6f2c" fill-opacity="0.302"><g transform="translate(57.75073, 310.054981)"><g><path d="M 80.097656 -99.71875 L 35.550781 -92.988281 C 29.792969 -92.117188 27.886719 -88.316406 28.375 -85.085938 C 28.832031 -82.054688 31.496094 -79.460938 35.132812 -80.011719 L 41.195312 -80.925781 L 37.488281 -63.730469 L 32.84375 -63.027344 C 27.386719 -62.203125 25.265625 -58.472656 25.753906 -55.242188 C 26.226562 -52.109375 29.109375 -49.445312 33.957031 -50.179688 L 34.96875 -50.332031 L 31.035156 -30.519531 C 29.035156 -20.503906 25.269531 -18.074219 20.015625 -17.28125 C 16.378906 -16.734375 13.488281 -18.777344 12.214844 -21.0625 C 12.308594 -21.800781 12.304688 -22.523438 12.195312 -23.230469 C 11.496094 -27.878906 6.925781 -30.078125 2.984375 -29.484375 C -1.054688 -28.875 -4.667969 -25.4375 -3.691406 -18.96875 C -2.242188 -9.375 8.789062 -1.328125 22.023438 -3.328125 C 32.425781 -4.898438 41.914062 -11.1875 45.230469 -28.21875 C 46.585938 -35.65625 48.546875 -45.253906 50.003906 -52.707031 L 56.066406 -53.621094 C 62.226562 -54.550781 64.117188 -58.453125 63.613281 -61.789062 C 63.171875 -64.714844 60.824219 -67.253906 57.792969 -66.796875 L 52.542969 -66.003906 L 55.742188 -83.121094 L 79.480469 -86.707031 C 85.109375 -87.765625 87.042969 -91.363281 86.554688 -94.597656 C 86.097656 -97.628906 83.535156 -100.234375 80.097656 -99.71875 Z M 80.097656 -99.71875 "/></g></g></g><g fill="#dd6f2c" fill-opacity="0.302"><g transform="translate(125.028863, 299.892895)"><g><path d="M 46.792969 -37.03125 C 44.449219 -26.550781 40.410156 -18.398438 36.167969 -17.757812 C 34.753906 -17.542969 33.847656 -18.75 33.632812 -20.164062 C 33.542969 -20.773438 33.519531 -21.59375 33.703125 -22.449219 L 37.160156 -39.917969 C 37.460938 -42.027344 37.589844 -43.90625 37.332031 -45.625 C 35.882812 -55.222656 23.148438 -57.429688 17.234375 -58.292969 C 17.414062 -59.148438 17.378906 -60.074219 17.253906 -60.882812 C 16.554688 -65.527344 11.816406 -68.84375 7.269531 -68.15625 C 1.308594 -67.253906 -1.433594 -61.46875 -0.5625 -55.710938 C -0.179688 -53.183594 1.125 -50.695312 3.046875 -48.917969 L -1.320312 -27.90625 C -1.402344 -27.066406 -1.378906 -26.242188 -1.289062 -25.636719 C -0.785156 -22.300781 2.101562 -20.980469 4.929688 -21.410156 C 7.757812 -21.835938 10.441406 -23.894531 11.167969 -27.3125 L 14.535156 -43.316406 C 17.5 -42.835938 21.34375 -42.695312 21.863281 -39.257812 C 21.941406 -38.753906 21.929688 -38.132812 21.835938 -37.394531 L 19.253906 -24.398438 C 18.796875 -21.953125 18.710938 -19.769531 19.015625 -17.75 C 20.34375 -8.960938 28.183594 -4.257812 36.570312 -5.523438 C 47.578125 -7.1875 56.101562 -18.496094 59.480469 -36.46875 C 59.59375 -37.105469 59.617188 -37.625 59.542969 -38.128906 C 59.082031 -41.160156 55.445312 -42.679688 52.210938 -42.191406 C 49.585938 -41.792969 47.242188 -40.199219 46.792969 -37.03125 Z M 46.792969 -37.03125 "/></g></g></g><g fill="#dd6f2c" fill-opacity="0.302"><g transform="translate(172.810483, 292.675677)"><g><path d="M 16.8125 -72.695312 C 21.359375 -73.382812 24.53125 -77.683594 23.832031 -82.332031 C 23.144531 -86.878906 18.855469 -89.949219 14.3125 -89.261719 C 9.765625 -88.578125 6.578125 -84.375 7.261719 -79.828125 C 7.964844 -75.183594 12.269531 -72.011719 16.8125 -72.695312 Z M 10.957031 -19.117188 L 17.277344 -52.515625 C 17.484375 -53.890625 17.777344 -55.378906 17.625 -56.390625 C 16.953125 -60.835938 13.265625 -62.65625 9.832031 -62.136719 C 6.703125 -61.664062 3.703125 -58.9375 2.804688 -53.945312 C 1.003906 -43.960938 -1.421875 -31.300781 -3.234375 -21.417969 C -3.535156 -19.304688 -3.933594 -16.453125 -3.671875 -14.738281 C -2.238281 -5.242188 6.464844 -0.976562 15.757812 -2.378906 C 25.660156 -3.875 35.652344 -11.585938 39.566406 -33.5625 C 39.675781 -34.199219 39.6875 -34.820312 39.59375 -35.429688 C 39.121094 -38.558594 35.800781 -40.019531 32.769531 -39.5625 C 30.042969 -39.152344 27.527344 -37.324219 26.789062 -34.011719 C 24.027344 -20.160156 19.296875 -15.210938 15.257812 -14.601562 C 12.933594 -14.25 11.1875 -15.535156 10.898438 -17.453125 C 10.824219 -17.960938 10.847656 -18.480469 10.957031 -19.117188 Z M 10.957031 -19.117188 "/></g></g></g><g fill="#dd6f2c" fill-opacity="0.302"><g transform="translate(200.691516, 288.464361)"><g><path d="M 46.8125 -36.207031 C 44.136719 -23.820312 34.25 -17.46875 25.660156 -16.171875 C 18.285156 -15.058594 13.105469 -17.890625 12.402344 -22.539062 C 12.265625 -23.449219 12.230469 -24.371094 12.480469 -25.441406 L 13 -27.484375 C 16.203125 -26.109375 20.023438 -25.445312 24.066406 -26.054688 C 33.257812 -27.445312 40.46875 -34.421875 41.824219 -43.925781 C 42.039062 -45.921875 42.050781 -47.886719 41.792969 -49.605469 C 40.34375 -59.203125 31.652344 -65.433594 20.238281 -63.707031 C 11.246094 -62.351562 3.25 -55.769531 1.242188 -45.132812 L -2.109375 -26.957031 C -2.550781 -24.414062 -2.691406 -21.910156 -2.339844 -19.589844 C -0.523438 -7.566406 11.921875 -1.800781 26.667969 -4.027344 C 40.710938 -6.148438 55.632812 -15.429688 59.386719 -35.730469 C 59.566406 -36.585938 59.5625 -37.308594 59.46875 -37.914062 C 58.996094 -41.046875 55.910156 -42.335938 52.878906 -41.878906 C 50.050781 -41.449219 47.25 -39.476562 46.8125 -36.207031 Z M 21.734375 -51.742188 C 24.5625 -52.167969 26.734375 -50.121094 27.175781 -47.191406 C 27.296875 -46.382812 27.320312 -45.558594 27.136719 -44.707031 C 26.632812 -41.21875 23.785156 -39.550781 20.753906 -39.089844 C 18.832031 -38.800781 16.851562 -38.914062 15.316406 -39.511719 L 16.523438 -45.890625 C 17.160156 -49.191406 19.410156 -51.390625 21.734375 -51.742188 Z M 21.734375 -51.742188 "/></g></g></g><g fill="#dd6f2c" fill-opacity="0.302"><g transform="translate(248.574151, 281.231885)"><g><path d="M 51.972656 -37.609375 C 49.359375 -24.8125 44.550781 -19.023438 39.804688 -18.308594 C 37.984375 -18.03125 36.839844 -18.789062 36.578125 -20.507812 C 36.472656 -21.214844 36.550781 -22.054688 36.703125 -23.109375 L 41.195312 -46.726562 C 41.597656 -48.851562 41.726562 -50.730469 41.464844 -52.449219 C 40.246094 -60.53125 32.460938 -65.554688 24.378906 -64.332031 C 20.441406 -63.738281 17.445312 -62.355469 15.109375 -60.039062 C 14.226562 -61.765625 11.550781 -62.394531 8.824219 -61.984375 C 5.992188 -61.554688 3.464844 -59.832031 2.882812 -56.851562 L -6.863281 -7.125 C -7.027344 -6.171875 -7.007812 -5.347656 -6.886719 -4.539062 C -6.320312 -0.800781 -3.101562 0.675781 0.132812 0.1875 C 3.667969 -0.347656 7.371094 -3.179688 8.199219 -7.953125 C 10.257812 -18.289062 13.015625 -32.859375 14.984375 -43.078125 C 16.949219 -48.539062 20.117188 -51.496094 22.949219 -51.925781 C 24.765625 -52.199219 26.261719 -51.1875 26.550781 -49.265625 C 26.660156 -48.558594 26.59375 -47.621094 26.429688 -46.664062 L 22.199219 -24.742188 C 21.738281 -22.296875 21.570312 -19.996094 21.890625 -17.875 C 23.292969 -8.582031 31.71875 -4.792969 40.304688 -6.089844 C 50.609375 -7.644531 60.570312 -16.277344 64.5625 -37.03125 C 64.746094 -37.882812 64.824219 -38.722656 64.71875 -39.429688 C 64.230469 -42.660156 61.039062 -43.9375 58.011719 -43.480469 C 55.28125 -43.066406 52.480469 -41.09375 51.972656 -37.609375 Z M 51.972656 -37.609375 "/></g></g></g><g fill="#dd6f2c" fill-opacity="0.302"><g transform="translate(301.608716, 273.221231)"><g><path d="M 59.121094 -43.648438 C 56.394531 -43.234375 53.777344 -41.394531 53.359375 -38.023438 C 50.644531 -25.214844 45.964844 -19.238281 41.421875 -18.550781 C 39.398438 -18.246094 38.074219 -19.492188 37.832031 -21.109375 C 37.738281 -21.714844 37.75 -22.335938 37.96875 -23.609375 L 49.589844 -86.222656 C 49.8125 -87.496094 50.058594 -89.289062 49.890625 -90.402344 C 49.234375 -94.746094 45.347656 -96.535156 41.8125 -96 C 38.679688 -95.527344 36.101562 -92.761719 35.074219 -87.234375 L 29.820312 -59.78125 C 26.285156 -62.660156 21.550781 -63.90625 16.804688 -63.1875 C 10.238281 -62.199219 3.714844 -57.492188 2.148438 -49.402344 L -3.328125 -20.679688 C -3.746094 -18.652344 -3.746094 -16.585938 -3.46875 -14.769531 C -2.128906 -5.878906 5.960938 -0.898438 14.648438 -2.210938 C 19.394531 -2.929688 24.40625 -5.339844 27.851562 -9.890625 C 31.5 -6.929688 36.671875 -5.539062 41.722656 -6.300781 C 51.722656 -7.8125 62.15625 -16.722656 65.933594 -37.546875 C 66.027344 -38.285156 66.121094 -39.023438 66.03125 -39.628906 C 65.558594 -42.757812 62.253906 -44.121094 59.121094 -43.648438 Z M 14.519531 -18.105469 C 12.523438 -18.320312 11.789062 -19.757812 11.546875 -21.375 C 11.347656 -22.6875 11.46875 -23.945312 11.632812 -24.902344 L 14.84375 -42.640625 C 15.964844 -48.90625 18.539062 -50.328125 20.15625 -50.574219 C 22.074219 -50.863281 24.484375 -49.265625 25.003906 -45.828125 C 25.234375 -44.3125 25.21875 -42.347656 24.691406 -39.6875 L 22.304688 -27.445312 C 20.402344 -19.511719 16.5 -17.992188 14.519531 -18.105469 Z M 14.519531 -18.105469 "/></g></g></g><g fill="#dd6f2c" fill-opacity="0.502"><g transform="translate(53.097591, 304.624029)"><g><path d="M 80.097656 -99.71875 L 35.550781 -92.988281 C 29.792969 -92.117188 27.886719 -88.316406 28.375 -85.085938 C 28.832031 -82.054688 31.496094 -79.460938 35.132812 -80.011719 L 41.195312 -80.925781 L 37.488281 -63.730469 L 32.84375 -63.027344 C 27.386719 -62.203125 25.265625 -58.472656 25.753906 -55.242188 C 26.226562 -52.109375 29.109375 -49.445312 33.957031 -50.179688 L 34.96875 -50.332031 L 31.035156 -30.519531 C 29.035156 -20.503906 25.269531 -18.074219 20.015625 -17.28125 C 16.378906 -16.734375 13.488281 -18.777344 12.214844 -21.0625 C 12.308594 -21.800781 12.304688 -22.523438 12.195312 -23.230469 C 11.496094 -27.878906 6.925781 -30.078125 2.984375 -29.484375 C -1.054688 -28.875 -4.667969 -25.4375 -3.691406 -18.96875 C -2.242188 -9.375 8.789062 -1.328125 22.023438 -3.328125 C 32.425781 -4.898438 41.914062 -11.1875 45.230469 -28.21875 C 46.585938 -35.65625 48.546875 -45.253906 50.003906 -52.707031 L 56.066406 -53.621094 C 62.226562 -54.550781 64.117188 -58.453125 63.613281 -61.789062 C 63.171875 -64.714844 60.824219 -67.253906 57.792969 -66.796875 L 52.542969 -66.003906 L 55.742188 -83.121094 L 79.480469 -86.707031 C 85.109375 -87.765625 87.042969 -91.363281 86.554688 -94.597656 C 86.097656 -97.628906 83.535156 -100.234375 80.097656 -99.71875 Z M 80.097656 -99.71875 "/></g></g></g><g fill="#dd6f2c" fill-opacity="0.502"><g transform="translate(120.375725, 294.461942)"><g><path d="M 46.792969 -37.03125 C 44.449219 -26.550781 40.410156 -18.398438 36.167969 -17.757812 C 34.753906 -17.542969 33.847656 -18.75 33.632812 -20.164062 C 33.542969 -20.773438 33.519531 -21.59375 33.703125 -22.449219 L 37.160156 -39.917969 C 37.460938 -42.027344 37.589844 -43.90625 37.332031 -45.625 C 35.882812 -55.222656 23.148438 -57.429688 17.234375 -58.292969 C 17.414062 -59.148438 17.378906 -60.074219 17.253906 -60.882812 C 16.554688 -65.527344 11.816406 -68.84375 7.269531 -68.15625 C 1.308594 -67.253906 -1.433594 -61.46875 -0.5625 -55.710938 C -0.179688 -53.183594 1.125 -50.695312 3.046875 -48.917969 L -1.320312 -27.90625 C -1.402344 -27.066406 -1.378906 -26.242188 -1.289062 -25.636719 C -0.785156 -22.300781 2.101562 -20.980469 4.929688 -21.410156 C 7.757812 -21.835938 10.441406 -23.894531 11.167969 -27.3125 L 14.535156 -43.316406 C 17.5 -42.835938 21.34375 -42.695312 21.863281 -39.257812 C 21.941406 -38.753906 21.929688 -38.132812 21.835938 -37.394531 L 19.253906 -24.398438 C 18.796875 -21.953125 18.710938 -19.769531 19.015625 -17.75 C 20.34375 -8.960938 28.183594 -4.257812 36.570312 -5.523438 C 47.578125 -7.1875 56.101562 -18.496094 59.480469 -36.46875 C 59.59375 -37.105469 59.617188 -37.625 59.542969 -38.128906 C 59.082031 -41.160156 55.445312 -42.679688 52.210938 -42.191406 C 49.585938 -41.792969 47.242188 -40.199219 46.792969 -37.03125 Z M 46.792969 -37.03125 "/></g></g></g><g fill="#dd6f2c" fill-opacity="0.502"><g transform="translate(168.157345, 287.244724)"><g><path d="M 16.8125 -72.695312 C 21.359375 -73.382812 24.53125 -77.683594 23.832031 -82.332031 C 23.144531 -86.878906 18.855469 -89.949219 14.3125 -89.261719 C 9.765625 -88.578125 6.578125 -84.375 7.261719 -79.828125 C 7.964844 -75.183594 12.269531 -72.011719 16.8125 -72.695312 Z M 10.957031 -19.117188 L 17.277344 -52.515625 C 17.484375 -53.890625 17.777344 -55.378906 17.625 -56.390625 C 16.953125 -60.835938 13.265625 -62.65625 9.832031 -62.136719 C 6.703125 -61.664062 3.703125 -58.9375 2.804688 -53.945312 C 1.003906 -43.960938 -1.421875 -31.300781 -3.234375 -21.417969 C -3.535156 -19.304688 -3.933594 -16.453125 -3.671875 -14.738281 C -2.238281 -5.242188 6.464844 -0.976562 15.757812 -2.378906 C 25.660156 -3.875 35.652344 -11.585938 39.566406 -33.5625 C 39.675781 -34.199219 39.6875 -34.820312 39.59375 -35.429688 C 39.121094 -38.558594 35.800781 -40.019531 32.769531 -39.5625 C 30.042969 -39.152344 27.527344 -37.324219 26.789062 -34.011719 C 24.027344 -20.160156 19.296875 -15.210938 15.257812 -14.601562 C 12.933594 -14.25 11.1875 -15.535156 10.898438 -17.453125 C 10.824219 -17.960938 10.847656 -18.480469 10.957031 -19.117188 Z M 10.957031 -19.117188 "/></g></g></g><g fill="#dd6f2c" fill-opacity="0.502"><g transform="translate(196.038377, 283.033408)"><g><path d="M 46.8125 -36.207031 C 44.136719 -23.820312 34.25 -17.46875 25.660156 -16.171875 C 18.285156 -15.058594 13.105469 -17.890625 12.402344 -22.539062 C 12.265625 -23.449219 12.230469 -24.371094 12.480469 -25.441406 L 13 -27.484375 C 16.203125 -26.109375 20.023438 -25.445312 24.066406 -26.054688 C 33.257812 -27.445312 40.46875 -34.421875 41.824219 -43.925781 C 42.039062 -45.921875 42.050781 -47.886719 41.792969 -49.605469 C 40.34375 -59.203125 31.652344 -65.433594 20.238281 -63.707031 C 11.246094 -62.351562 3.25 -55.769531 1.242188 -45.132812 L -2.109375 -26.957031 C -2.550781 -24.414062 -2.691406 -21.910156 -2.339844 -19.589844 C -0.523438 -7.566406 11.921875 -1.800781 26.667969 -4.027344 C 40.710938 -6.148438 55.632812 -15.429688 59.386719 -35.730469 C 59.566406 -36.585938 59.5625 -37.308594 59.46875 -37.914062 C 58.996094 -41.046875 55.910156 -42.335938 52.878906 -41.878906 C 50.050781 -41.449219 47.25 -39.476562 46.8125 -36.207031 Z M 21.734375 -51.742188 C 24.5625 -52.167969 26.734375 -50.121094 27.175781 -47.191406 C 27.296875 -46.382812 27.320312 -45.558594 27.136719 -44.707031 C 26.632812 -41.21875 23.785156 -39.550781 20.753906 -39.089844 C 18.832031 -38.800781 16.851562 -38.914062 15.316406 -39.511719 L 16.523438 -45.890625 C 17.160156 -49.191406 19.410156 -51.390625 21.734375 -51.742188 Z M 21.734375 -51.742188 "/></g></g></g><g fill="#dd6f2c" fill-opacity="0.502"><g transform="translate(243.921013, 275.800932)"><g><path d="M 51.972656 -37.609375 C 49.359375 -24.8125 44.550781 -19.023438 39.804688 -18.308594 C 37.984375 -18.03125 36.839844 -18.789062 36.578125 -20.507812 C 36.472656 -21.214844 36.550781 -22.054688 36.703125 -23.109375 L 41.195312 -46.726562 C 41.597656 -48.851562 41.726562 -50.730469 41.464844 -52.449219 C 40.246094 -60.53125 32.460938 -65.554688 24.378906 -64.332031 C 20.441406 -63.738281 17.445312 -62.355469 15.109375 -60.039062 C 14.226562 -61.765625 11.550781 -62.394531 8.824219 -61.984375 C 5.992188 -61.554688 3.464844 -59.832031 2.882812 -56.851562 L -6.863281 -7.125 C -7.027344 -6.171875 -7.007812 -5.347656 -6.886719 -4.539062 C -6.320312 -0.800781 -3.101562 0.675781 0.132812 0.1875 C 3.667969 -0.347656 7.371094 -3.179688 8.199219 -7.953125 C 10.257812 -18.289062 13.015625 -32.859375 14.984375 -43.078125 C 16.949219 -48.539062 20.117188 -51.496094 22.949219 -51.925781 C 24.765625 -52.199219 26.261719 -51.1875 26.550781 -49.265625 C 26.660156 -48.558594 26.59375 -47.621094 26.429688 -46.664062 L 22.199219 -24.742188 C 21.738281 -22.296875 21.570312 -19.996094 21.890625 -17.875 C 23.292969 -8.582031 31.71875 -4.792969 40.304688 -6.089844 C 50.609375 -7.644531 60.570312 -16.277344 64.5625 -37.03125 C 64.746094 -37.882812 64.824219 -38.722656 64.71875 -39.429688 C 64.230469 -42.660156 61.039062 -43.9375 58.011719 -43.480469 C 55.28125 -43.066406 52.480469 -41.09375 51.972656 -37.609375 Z M 51.972656 -37.609375 "/></g></g></g><g fill="#dd6f2c" fill-opacity="0.502"><g transform="translate(296.955578, 267.790279)"><g><path d="M 59.121094 -43.648438 C 56.394531 -43.234375 53.777344 -41.394531 53.359375 -38.023438 C 50.644531 -25.214844 45.964844 -19.238281 41.421875 -18.550781 C 39.398438 -18.246094 38.074219 -19.492188 37.832031 -21.109375 C 37.738281 -21.714844 37.75 -22.335938 37.96875 -23.609375 L 49.589844 -86.222656 C 49.8125 -87.496094 50.058594 -89.289062 49.890625 -90.402344 C 49.234375 -94.746094 45.347656 -96.535156 41.8125 -96 C 38.679688 -95.527344 36.101562 -92.761719 35.074219 -87.234375 L 29.820312 -59.78125 C 26.285156 -62.660156 21.550781 -63.90625 16.804688 -63.1875 C 10.238281 -62.199219 3.714844 -57.492188 2.148438 -49.402344 L -3.328125 -20.679688 C -3.746094 -18.652344 -3.746094 -16.585938 -3.46875 -14.769531 C -2.128906 -5.878906 5.960938 -0.898438 14.648438 -2.210938 C 19.394531 -2.929688 24.40625 -5.339844 27.851562 -9.890625 C 31.5 -6.929688 36.671875 -5.539062 41.722656 -6.300781 C 51.722656 -7.8125 62.15625 -16.722656 65.933594 -37.546875 C 66.027344 -38.285156 66.121094 -39.023438 66.03125 -39.628906 C 65.558594 -42.757812 62.253906 -44.121094 59.121094 -43.648438 Z M 14.519531 -18.105469 C 12.523438 -18.320312 11.789062 -19.757812 11.546875 -21.375 C 11.347656 -22.6875 11.46875 -23.945312 11.632812 -24.902344 L 14.84375 -42.640625 C 15.964844 -48.90625 18.539062 -50.328125 20.15625 -50.574219 C 22.074219 -50.863281 24.484375 -49.265625 25.003906 -45.828125 C 25.234375 -44.3125 25.21875 -42.347656 24.691406 -39.6875 L 22.304688 -27.445312 C 20.402344 -19.511719 16.5 -17.992188 14.519531 -18.105469 Z M 14.519531 -18.105469 "/></g></g></g><g fill="#ffffff" fill-opacity="1"><g transform="translate(48.444453, 299.193076)"><g><path d="M 80.097656 -99.71875 L 35.550781 -92.988281 C 29.792969 -92.117188 27.886719 -88.316406 28.375 -85.085938 C 28.832031 -82.054688 31.496094 -79.460938 35.132812 -80.011719 L 41.195312 -80.925781 L 37.488281 -63.730469 L 32.84375 -63.027344 C 27.386719 -62.203125 25.265625 -58.472656 25.753906 -55.242188 C 26.226562 -52.109375 29.109375 -49.445312 33.957031 -50.179688 L 34.96875 -50.332031 L 31.035156 -30.519531 C 29.035156 -20.503906 25.269531 -18.074219 20.015625 -17.28125 C 16.378906 -16.734375 13.488281 -18.777344 12.214844 -21.0625 C 12.308594 -21.800781 12.304688 -22.523438 12.195312 -23.230469 C 11.496094 -27.878906 6.925781 -30.078125 2.984375 -29.484375 C -1.054688 -28.875 -4.667969 -25.4375 -3.691406 -18.96875 C -2.242188 -9.375 8.789062 -1.328125 22.023438 -3.328125 C 32.425781 -4.898438 41.914062 -11.1875 45.230469 -28.21875 C 46.585938 -35.65625 48.546875 -45.253906 50.003906 -52.707031 L 56.066406 -53.621094 C 62.226562 -54.550781 64.117188 -58.453125 63.613281 -61.789062 C 63.171875 -64.714844 60.824219 -67.253906 57.792969 -66.796875 L 52.542969 -66.003906 L 55.742188 -83.121094 L 79.480469 -86.707031 C 85.109375 -87.765625 87.042969 -91.363281 86.554688 -94.597656 C 86.097656 -97.628906 83.535156 -100.234375 80.097656 -99.71875 Z M 80.097656 -99.71875 "/></g></g></g><g fill="#ffffff" fill-opacity="1"><g transform="translate(115.722587, 289.03099)"><g><path d="M 46.792969 -37.03125 C 44.449219 -26.550781 40.410156 -18.398438 36.167969 -17.757812 C 34.753906 -17.542969 33.847656 -18.75 33.632812 -20.164062 C 33.542969 -20.773438 33.519531 -21.59375 33.703125 -22.449219 L 37.160156 -39.917969 C 37.460938 -42.027344 37.589844 -43.90625 37.332031 -45.625 C 35.882812 -55.222656 23.148438 -57.429688 17.234375 -58.292969 C 17.414062 -59.148438 17.378906 -60.074219 17.253906 -60.882812 C 16.554688 -65.527344 11.816406 -68.84375 7.269531 -68.15625 C 1.308594 -67.253906 -1.433594 -61.46875 -0.5625 -55.710938 C -0.179688 -53.183594 1.125 -50.695312 3.046875 -48.917969 L -1.320312 -27.90625 C -1.402344 -27.066406 -1.378906 -26.242188 -1.289062 -25.636719 C -0.785156 -22.300781 2.101562 -20.980469 4.929688 -21.410156 C 7.757812 -21.835938 10.441406 -23.894531 11.167969 -27.3125 L 14.535156 -43.316406 C 17.5 -42.835938 21.34375 -42.695312 21.863281 -39.257812 C 21.941406 -38.753906 21.929688 -38.132812 21.835938 -37.394531 L 19.253906 -24.398438 C 18.796875 -21.953125 18.710938 -19.769531 19.015625 -17.75 C 20.34375 -8.960938 28.183594 -4.257812 36.570312 -5.523438 C 47.578125 -7.1875 56.101562 -18.496094 59.480469 -36.46875 C 59.59375 -37.105469 59.617188 -37.625 59.542969 -38.128906 C 59.082031 -41.160156 55.445312 -42.679688 52.210938 -42.191406 C 49.585938 -41.792969 47.242188 -40.199219 46.792969 -37.03125 Z M 46.792969 -37.03125 "/></g></g></g><g fill="#ffffff" fill-opacity="1"><g transform="translate(163.504207, 281.813772)"><g><path d="M 16.8125 -72.695312 C 21.359375 -73.382812 24.53125 -77.683594 23.832031 -82.332031 C 23.144531 -86.878906 18.855469 -89.949219 14.3125 -89.261719 C 9.765625 -88.578125 6.578125 -84.375 7.261719 -79.828125 C 7.964844 -75.183594 12.269531 -72.011719 16.8125 -72.695312 Z M 10.957031 -19.117188 L 17.277344 -52.515625 C 17.484375 -53.890625 17.777344 -55.378906 17.625 -56.390625 C 16.953125 -60.835938 13.265625 -62.65625 9.832031 -62.136719 C 6.703125 -61.664062 3.703125 -58.9375 2.804688 -53.945312 C 1.003906 -43.960938 -1.421875 -31.300781 -3.234375 -21.417969 C -3.535156 -19.304688 -3.933594 -16.453125 -3.671875 -14.738281 C -2.238281 -5.242188 6.464844 -0.976562 15.757812 -2.378906 C 25.660156 -3.875 35.652344 -11.585938 39.566406 -33.5625 C 39.675781 -34.199219 39.6875 -34.820312 39.59375 -35.429688 C 39.121094 -38.558594 35.800781 -40.019531 32.769531 -39.5625 C 30.042969 -39.152344 27.527344 -37.324219 26.789062 -34.011719 C 24.027344 -20.160156 19.296875 -15.210938 15.257812 -14.601562 C 12.933594 -14.25 11.1875 -15.535156 10.898438 -17.453125 C 10.824219 -17.960938 10.847656 -18.480469 10.957031 -19.117188 Z M 10.957031 -19.117188 "/></g></g></g><g fill="#ffffff" fill-opacity="1"><g transform="translate(191.385239, 277.602456)"><g><path d="M 46.8125 -36.207031 C 44.136719 -23.820312 34.25 -17.46875 25.660156 -16.171875 C 18.285156 -15.058594 13.105469 -17.890625 12.402344 -22.539062 C 12.265625 -23.449219 12.230469 -24.371094 12.480469 -25.441406 L 13 -27.484375 C 16.203125 -26.109375 20.023438 -25.445312 24.066406 -26.054688 C 33.257812 -27.445312 40.46875 -34.421875 41.824219 -43.925781 C 42.039062 -45.921875 42.050781 -47.886719 41.792969 -49.605469 C 40.34375 -59.203125 31.652344 -65.433594 20.238281 -63.707031 C 11.246094 -62.351562 3.25 -55.769531 1.242188 -45.132812 L -2.109375 -26.957031 C -2.550781 -24.414062 -2.691406 -21.910156 -2.339844 -19.589844 C -0.523438 -7.566406 11.921875 -1.800781 26.667969 -4.027344 C 40.710938 -6.148438 55.632812 -15.429688 59.386719 -35.730469 C 59.566406 -36.585938 59.5625 -37.308594 59.46875 -37.914062 C 58.996094 -41.046875 55.910156 -42.335938 52.878906 -41.878906 C 50.050781 -41.449219 47.25 -39.476562 46.8125 -36.207031 Z M 21.734375 -51.742188 C 24.5625 -52.167969 26.734375 -50.121094 27.175781 -47.191406 C 27.296875 -46.382812 27.320312 -45.558594 27.136719 -44.707031 C 26.632812 -41.21875 23.785156 -39.550781 20.753906 -39.089844 C 18.832031 -38.800781 16.851562 -38.914062 15.316406 -39.511719 L 16.523438 -45.890625 C 17.160156 -49.191406 19.410156 -51.390625 21.734375 -51.742188 Z M 21.734375 -51.742188 "/></g></g></g><g fill="#ffffff" fill-opacity="1"><g transform="translate(239.267874, 270.36998)"><g><path d="M 51.972656 -37.609375 C 49.359375 -24.8125 44.550781 -19.023438 39.804688 -18.308594 C 37.984375 -18.03125 36.839844 -18.789062 36.578125 -20.507812 C 36.472656 -21.214844 36.550781 -22.054688 36.703125 -23.109375 L 41.195312 -46.726562 C 41.597656 -48.851562 41.726562 -50.730469 41.464844 -52.449219 C 40.246094 -60.53125 32.460938 -65.554688 24.378906 -64.332031 C 20.441406 -63.738281 17.445312 -62.355469 15.109375 -60.039062 C 14.226562 -61.765625 11.550781 -62.394531 8.824219 -61.984375 C 5.992188 -61.554688 3.464844 -59.832031 2.882812 -56.851562 L -6.863281 -7.125 C -7.027344 -6.171875 -7.007812 -5.347656 -6.886719 -4.539062 C -6.320312 -0.800781 -3.101562 0.675781 0.132812 0.1875 C 3.667969 -0.347656 7.371094 -3.179688 8.199219 -7.953125 C 10.257812 -18.289062 13.015625 -32.859375 14.984375 -43.078125 C 16.949219 -48.539062 20.117188 -51.496094 22.949219 -51.925781 C 24.765625 -52.199219 26.261719 -51.1875 26.550781 -49.265625 C 26.660156 -48.558594 26.59375 -47.621094 26.429688 -46.664062 L 22.199219 -24.742188 C 21.738281 -22.296875 21.570312 -19.996094 21.890625 -17.875 C 23.292969 -8.582031 31.71875 -4.792969 40.304688 -6.089844 C 50.609375 -7.644531 60.570312 -16.277344 64.5625 -37.03125 C 64.746094 -37.882812 64.824219 -38.722656 64.71875 -39.429688 C 64.230469 -42.660156 61.039062 -43.9375 58.011719 -43.480469 C 55.28125 -43.066406 52.480469 -41.09375 51.972656 -37.609375 Z M 51.972656 -37.609375 "/></g></g></g><g fill="#ffffff" fill-opacity="1"><g transform="translate(292.30244, 262.359326)"><g><path d="M 59.121094 -43.648438 C 56.394531 -43.234375 53.777344 -41.394531 53.359375 -38.023438 C 50.644531 -25.214844 45.964844 -19.238281 41.421875 -18.550781 C 39.398438 -18.246094 38.074219 -19.492188 37.832031 -21.109375 C 37.738281 -21.714844 37.75 -22.335938 37.96875 -23.609375 L 49.589844 -86.222656 C 49.8125 -87.496094 50.058594 -89.289062 49.890625 -90.402344 C 49.234375 -94.746094 45.347656 -96.535156 41.8125 -96 C 38.679688 -95.527344 36.101562 -92.761719 35.074219 -87.234375 L 29.820312 -59.78125 C 26.285156 -62.660156 21.550781 -63.90625 16.804688 -63.1875 C 10.238281 -62.199219 3.714844 -57.492188 2.148438 -49.402344 L -3.328125 -20.679688 C -3.746094 -18.652344 -3.746094 -16.585938 -3.46875 -14.769531 C -2.128906 -5.878906 5.960938 -0.898438 14.648438 -2.210938 C 19.394531 -2.929688 24.40625 -5.339844 27.851562 -9.890625 C 31.5 -6.929688 36.671875 -5.539062 41.722656 -6.300781 C 51.722656 -7.8125 62.15625 -16.722656 65.933594 -37.546875 C 66.027344 -38.285156 66.121094 -39.023438 66.03125 -39.628906 C 65.558594 -42.757812 62.253906 -44.121094 59.121094 -43.648438 Z M 14.519531 -18.105469 C 12.523438 -18.320312 11.789062 -19.757812 11.546875 -21.375 C 11.347656 -22.6875 11.46875 -23.945312 11.632812 -24.902344 L 14.84375 -42.640625 C 15.964844 -48.90625 18.539062 -50.328125 20.15625 -50.574219 C 22.074219 -50.863281 24.484375 -49.265625 25.003906 -45.828125 C 25.234375 -44.3125 25.21875 -42.347656 24.691406 -39.6875 L 22.304688 -27.445312 C 20.402344 -19.511719 16.5 -17.992188 14.519531 -18.105469 Z M 14.519531 -18.105469 "/></g></g></g></svg>